<mxfile host="app.diagrams.net" agent="Mozilla/5.0 (Windows NT 10.0; Win64; x64) AppleWebKit/537.36 (KHTML, like Gecko) Chrome/138.0.0.0 Safari/537.36 OPR/122.0.0.0" version="28.2.5">
  <diagram name="Page-1" id="_aaDaGKIadGq73jKFmVz">
    <mxGraphModel dx="997" dy="542" grid="1" gridSize="10" guides="1" tooltips="1" connect="1" arrows="1" fold="1" page="1" pageScale="1" pageWidth="827" pageHeight="1169" math="0" shadow="0">
      <root>
        <mxCell id="0" />
        <mxCell id="1" parent="0" />
        <mxCell id="604HP2s6_zL1x855Cvra-1" value="" style="rounded=0;whiteSpace=wrap;html=1;" vertex="1" parent="1">
          <mxGeometry x="360" y="200" width="20" height="300" as="geometry" />
        </mxCell>
        <mxCell id="604HP2s6_zL1x855Cvra-2" value="" style="rounded=0;whiteSpace=wrap;html=1;" vertex="1" parent="1">
          <mxGeometry x="340" y="50" width="60" height="150" as="geometry" />
        </mxCell>
        <mxCell id="604HP2s6_zL1x855Cvra-3" value="" style="ellipse;whiteSpace=wrap;html=1;aspect=fixed;fillColor=light-dark(#60A917, #00ff33);fontColor=#ffffff;strokeColor=#2D7600;fillStyle=solid;" vertex="1" parent="1">
          <mxGeometry x="350" y="60" width="40" height="40" as="geometry" />
        </mxCell>
        <mxCell id="604HP2s6_zL1x855Cvra-4" value="" style="ellipse;whiteSpace=wrap;html=1;aspect=fixed;fillColor=light-dark(#E3C800, #fbff00);strokeColor=#B09500;fontColor=#000000;fillStyle=solid;" vertex="1" parent="1">
          <mxGeometry x="350" y="105" width="40" height="40" as="geometry" />
        </mxCell>
        <mxCell id="604HP2s6_zL1x855Cvra-5" value="" style="ellipse;whiteSpace=wrap;html=1;aspect=fixed;fillStyle=solid;fillColor=light-dark(#FFFFFF,#FF0000);" vertex="1" parent="1">
          <mxGeometry x="350" y="150" width="40" height="40" as="geometry" />
        </mxCell>
        <mxCell id="604HP2s6_zL1x855Cvra-6" value="" style="ellipse;whiteSpace=wrap;html=1;aspect=fixed;" vertex="1" parent="1">
          <mxGeometry x="365" y="340" width="10" height="10" as="geometry" />
        </mxCell>
        <mxCell id="604HP2s6_zL1x855Cvra-12" value="" style="edgeStyle=orthogonalEdgeStyle;rounded=0;orthogonalLoop=1;jettySize=auto;html=1;" edge="1" parent="1" source="604HP2s6_zL1x855Cvra-7" target="604HP2s6_zL1x855Cvra-6">
          <mxGeometry relative="1" as="geometry" />
        </mxCell>
        <mxCell id="604HP2s6_zL1x855Cvra-7" value="Button" style="text;html=1;align=center;verticalAlign=middle;whiteSpace=wrap;rounded=0;" vertex="1" parent="1">
          <mxGeometry x="200" y="310" width="60" height="30" as="geometry" />
        </mxCell>
        <mxCell id="604HP2s6_zL1x855Cvra-8" value="" style="whiteSpace=wrap;html=1;aspect=fixed;" vertex="1" parent="1">
          <mxGeometry x="400" y="90" width="70" height="70" as="geometry" />
        </mxCell>
        <mxCell id="604HP2s6_zL1x855Cvra-9" value="&lt;font style=&quot;font-size: 30px;&quot;&gt;5&lt;/font&gt;" style="text;html=1;align=center;verticalAlign=middle;whiteSpace=wrap;rounded=0;" vertex="1" parent="1">
          <mxGeometry x="405" y="110" width="60" height="30" as="geometry" />
        </mxCell>
        <mxCell id="604HP2s6_zL1x855Cvra-11" value="" style="edgeStyle=orthogonalEdgeStyle;rounded=0;orthogonalLoop=1;jettySize=auto;html=1;" edge="1" parent="1" source="604HP2s6_zL1x855Cvra-10" target="604HP2s6_zL1x855Cvra-9">
          <mxGeometry relative="1" as="geometry">
            <Array as="points">
              <mxPoint x="435" y="215" />
            </Array>
          </mxGeometry>
        </mxCell>
        <mxCell id="604HP2s6_zL1x855Cvra-10" value="Countdown timer" style="text;html=1;align=center;verticalAlign=middle;whiteSpace=wrap;rounded=0;" vertex="1" parent="1">
          <mxGeometry x="500" y="200" width="60" height="30" as="geometry" />
        </mxCell>
      </root>
    </mxGraphModel>
  </diagram>
</mxfile>
